<svg width="14" height="14" viewBox="0 0 14 14" fill="none" xmlns="http://www.w3.org/2000/svg">
<path d="M6.99325 0.333984C3.31325 0.333984 0.333252 3.32065 0.333252 7.00065C0.333252 10.6807 3.31325 13.6673 6.99325 13.6673C10.6799 13.6673 13.6666 10.6807 13.6666 7.00065C13.6666 3.32065 10.6799 0.333984 6.99325 0.333984ZM6.99992 12.334C4.05325 12.334 1.66659 9.94732 1.66659 7.00065C1.66659 4.05398 4.05325 1.66732 6.99992 1.66732C9.94659 1.66732 12.3333 4.05398 12.3333 7.00065C12.3333 9.94732 9.94659 12.334 6.99992 12.334ZM6.85325 3.66732H6.81325C6.54659 3.66732 6.33325 3.88065 6.33325 4.14732V7.29398C6.33325 7.52732 6.45325 7.74732 6.65992 7.86732L9.42659 9.52732C9.65325 9.66065 9.94659 9.59398 10.0799 9.36732C10.1134 9.31334 10.1357 9.25317 10.1454 9.1904C10.1551 9.12764 10.1521 9.06355 10.1366 9.00196C10.121 8.94038 10.0932 8.88255 10.0549 8.83193C10.0165 8.78131 9.96834 8.73893 9.91325 8.70732L7.33325 7.17398V4.14732C7.33325 3.88065 7.11992 3.66732 6.85325 3.66732Z" fill="white"/>
</svg>
