<svg width="538" height="101" viewBox="0 0 538 101" fill="none" xmlns="http://www.w3.org/2000/svg">
<path opacity="0.299315" fill-rule="evenodd" clip-rule="evenodd" d="M0 100.5C0 100.5 226.071 97.2062 267.449 97.2062C308.827 97.2062 537.5 100.5 537.5 100.5L406.5 14C406.5 14 320.5 9 268 9C215.5 9 128.5 14 128.5 14L0 100.5Z" fill="url(#paint0_linear_1757_29072)"/>
<path fill-rule="evenodd" clip-rule="evenodd" d="M128.315 14C128.315 14 226.071 9.10309 267.449 9.10309C308.827 9.10309 406.583 14 406.583 14L425.5 5.57227C425.5 5.57227 320.5 0 268 0C215.5 0 110.5 5.57227 110.5 5.57227L128.315 14Z" fill="url(#paint1_linear_1757_29072)" fill-opacity="0.8"/>
<defs>
<linearGradient id="paint0_linear_1757_29072" x1="104.5" y1="0" x2="104.5" y2="80" gradientUnits="userSpaceOnUse">
<stop stop-color="#DCDCDC"/>
<stop offset="1" stop-color="black" stop-opacity="0.2"/>
</linearGradient>
<linearGradient id="paint1_linear_1757_29072" x1="268" y1="0" x2="268" y2="14" gradientUnits="userSpaceOnUse">
<stop stop-opacity="0.5"/>
<stop stop-color="white"/>
<stop offset="1" stop-opacity="0.3"/>
</linearGradient>
</defs>
</svg>
